<svg width="946" height="381" viewBox="0 0 946 381" fill="none" xmlns="http://www.w3.org/2000/svg">
<path d="M812.728 100.374L808.243 104.886C802.027 111.137 802.039 121.238 808.269 127.474L877.465 196.745C883.628 202.915 883.715 212.885 877.659 219.162L806.996 292.404C801.313 298.294 800.992 307.524 806.252 313.795L812.433 321.164C818.602 328.52 829.815 328.824 836.375 321.814L932.421 219.164C938.319 212.861 938.153 203.015 932.046 196.914L835.383 100.336C829.121 94.0799 818.97 94.0968 812.728 100.374Z" stroke="#4C4CDC" stroke-width="17"/>
<path d="M133.272 323.626L137.757 319.114C143.973 312.863 143.961 302.762 137.731 296.526L68.5354 227.255C62.3717 221.085 62.2851 211.115 68.3406 204.838L139.004 131.596C144.687 125.706 145.008 116.476 139.748 110.205L133.567 102.836C127.398 95.48 116.185 95.1756 109.625 102.186L13.5791 204.836C7.68115 211.139 7.84688 220.985 13.9536 227.086L110.617 323.664C116.879 329.92 127.03 329.903 133.272 323.626Z" stroke="#4C4CDC" stroke-width="17"/>
<path d="M481.816 114.824V317H432.568V195.752L387.352 317H347.608L302.104 195.464V317H252.856V114.824H311.032L367.768 254.792L423.928 114.824H481.816ZM692.335 114.824V317H643.087V233.768H566.479V317H517.231V114.824H566.479V194.024H643.087V114.824H692.335Z" fill="#4C4CDC"/>
</svg>
